<svg id="Layer_1" data-name="Layer 1" xmlns="http://www.w3.org/2000/svg" xmlns:xlink="http://www.w3.org/1999/xlink" viewBox="0 0 399 198.46"><defs><style>.cls-1,.cls-2,.cls-3{fill:none;}.cls-1{stroke-linecap:round;stroke-linejoin:round;stroke-width:58.75px;stroke:url(#linear-gradient);}.cls-2,.cls-3{stroke:#fff;stroke-miterlimit:10;stroke-width:2.02px;}.cls-2{stroke-dasharray:10.08;}.cls-4{fill:#fff;}.cls-5{fill:url(#linear-gradient-2);}.cls-6{fill:url(#linear-gradient-3);}.cls-7{fill:url(#linear-gradient-4);}.cls-8{fill:url(#linear-gradient-5);}.cls-9{fill:#1d89ff;}</style><linearGradient id="linear-gradient" x1="691.25" y1="1881.29" x2="1090.25" y2="1881.29" gradientTransform="translate(1090.25 2050.38) rotate(180)" gradientUnits="userSpaceOnUse"><stop offset="0" stop-color="#0070ff"/><stop offset="1" stop-color="#69cfff"/></linearGradient><linearGradient id="linear-gradient-2" x1="201.13" y1="97.87" x2="200.26" y2="117.27" gradientUnits="userSpaceOnUse"><stop offset="0" stop-color="#0038da"/><stop offset="1" stop-color="#69cfff"/></linearGradient><linearGradient id="linear-gradient-3" x1="201.13" y1="145.28" x2="201.13" y2="129.73" gradientTransform="matrix(1, 0, 0, 1, 0, 0)" xlink:href="#linear-gradient"/><linearGradient id="linear-gradient-4" x1="201.13" y1="101.15" x2="201.13" y2="0" gradientTransform="matrix(1, 0, 0, 1, 0, 0)" xlink:href="#linear-gradient"/><linearGradient id="linear-gradient-5" x1="201.13" y1="9.04" x2="201.13" y2="92.2" gradientTransform="matrix(1, 0, 0, 1, 0, 0)" xlink:href="#linear-gradient"/></defs><line class="cls-1" x1="29.38" y1="169.09" x2="369.62" y2="169.09"/><line class="cls-2" x1="369.62" y1="169.09" x2="48.7" y2="169.09"/><circle class="cls-3" cx="30.42" cy="169.09" r="15.59"/><circle class="cls-4" cx="30.42" cy="169.09" r="8.38"/><polygon class="cls-5" points="183.81 97.81 201.13 117.9 201.13 117.9 201.13 117.9 201.13 117.9 201.13 117.9 218.45 97.81 183.81 97.81"/><circle class="cls-4" cx="201.13" cy="137.13" r="12.35"/><circle class="cls-6" cx="201.13" cy="137.13" r="7.97"/><circle class="cls-7" cx="201.13" cy="50.57" r="50.57"/><circle class="cls-8" cx="201.13" cy="50.57" r="42.17"/><circle class="cls-4" cx="201.13" cy="50.57" r="36.22"/><path class="cls-9" d="M223.23,34.17a.9.9,0,0,1,0-.54,3,3,0,0,0-5.15-3,.82.82,0,0,1-.45.29,2.74,2.74,0,0,0-1.81,1.15,1.23,1.23,0,0,1-.91.59,3.82,3.82,0,0,0-2,1.1c-.44-.31-.44-.31-.47-.77a3,3,0,0,0-1-2,.82.82,0,0,1-.24-.48,3,3,0,0,0-6,0A.85.85,0,0,1,205,31a2.87,2.87,0,0,0-1,2,.81.81,0,0,1-.49.83,7.29,7.29,0,0,0-1.17-.79,10.36,10.36,0,0,0-1.34-.41.62.62,0,0,1-.26-.25,3,3,0,0,0-2.06-1.41.65.65,0,0,1-.36-.22,3,3,0,0,0-5.19,2.92.78.78,0,0,1,0,.5,3.19,3.19,0,0,0,.19,2.46.69.69,0,0,1,0,.49,3.86,3.86,0,0,0,2,4.94.83.83,0,0,1,.31.24c.19.28.34.57.56,1l-1.11.66c-.78.42-1.56.82-2.35,1.23a.49.49,0,0,1-.29,0c-.73-.16-1.44-.41-2.17-.51-3.9-.54-7.8-1.05-11.7-1.56a2.24,2.24,0,0,0-2.47,1.35h0a2.88,2.88,0,0,0-.32,1.31v18a1.86,1.86,0,0,0,.25.89h0a2.41,2.41,0,0,0,2.81,1.4c3.68-.49,7.36-1,11-1.48a7.52,7.52,0,0,0,2.44-.58,3.84,3.84,0,0,1,2-.45c.56,0,1.11,0,1.66,0,.12,0,.24,0,.35,0-.42.94-.86,1.83-1.22,2.76a16.89,16.89,0,0,0-1.37,6.79,7.19,7.19,0,0,0,.42,2.06A1.63,1.63,0,0,0,196,76.23a6.11,6.11,0,0,0,1.77-.52,14.25,14.25,0,0,0,4-3.06c.32-.34.63-.68,1-1.05.06.21.09.35.14.49.39,1.17.75,2.35,1.21,3.49a6.39,6.39,0,0,0,1.94,2.76,1.86,1.86,0,0,0,2.54,0A7.38,7.38,0,0,0,210,76.78a16.64,16.64,0,0,0,2-5.43c0-.18.08-.36.13-.61.16.18.26.29.35.41A20.51,20.51,0,0,0,216,74.62a7.71,7.71,0,0,0,3.26,1.59A1.83,1.83,0,0,0,221.48,75a6.43,6.43,0,0,0,.36-2,19.89,19.89,0,0,0-3.07-10.1,4,4,0,0,0-2.41-1.72l-.47-.13.1-.05c-.17-.73-.33-1.46-.51-2.23a3.06,3.06,0,0,0,.42-4.6c1.14-1.62,1.14-2.54,0-4.28a3,3,0,0,0-1.54-5c.3-.5.56-1,.83-1.42.08,0,.11,0,.12.06a3.43,3.43,0,0,0,5.4-1.13A.68.68,0,0,1,221,42a3.84,3.84,0,0,0,2-4.89.8.8,0,0,1,0-.57A3.22,3.22,0,0,0,223.23,34.17Zm-9.52,8.34-1.22,2.1a.43.43,0,0,1-.27.13h-3.11V43a3.61,3.61,0,0,0,3.38-1.06Zm-8.58-7.78a.89.89,0,0,0,.57-1.21,1.25,1.25,0,0,1,.7-1.45c.56-.31.66-.49.57-1.14a1.24,1.24,0,0,1,.6-1.35,1.2,1.2,0,0,1,1.37,0,1.26,1.26,0,0,1,.54,1.34.86.86,0,0,0,.55,1.11,1.27,1.27,0,0,1,.71,1.48.89.89,0,0,0,.56,1.18,2.11,2.11,0,0,1,.6,3.37,1.17,1.17,0,0,0-.31,1.17,1.58,1.58,0,0,1-.55,1.65,1.56,1.56,0,0,1-1.66.31c-.14,0-.21-.27-.31-.41s0,0,0,0c0-1.62,0-1.62,1.11-2.76a5.18,5.18,0,0,0,.4-.41.8.8,0,0,0-.06-1.16.77.77,0,0,0-1.12,0c-.38.37-.72.8-1.17,1.3-.41-.46-.71-.82-1-1.16a.86.86,0,0,0-1.29-.09.85.85,0,0,0,.1,1.28c.37.38.76.73,1.1,1.13a1.05,1.05,0,0,1,.26.6c0,.43,0,.86,0,1.29s-.11.42-.38.5a1.7,1.7,0,0,1-2.16-1.94,1.3,1.3,0,0,0-.34-1.28A2.1,2.1,0,0,1,205.13,34.73Zm-1.22,7.14c1.35,1,1.35,1,3.45,1.12v1.75H204.1a.32.32,0,0,1-.22-.14c-.41-.69-.8-1.38-1.2-2.08Zm-9.2-3.36a9.31,9.31,0,0,1,.46-1.18c.29-.56.3-.82-.1-1.27a1.27,1.27,0,0,1-.14-1.68.86.86,0,0,0-.08-1.23,1.22,1.22,0,0,1-.2-1.43,1.19,1.19,0,0,1,1.21-.71,1.23,1.23,0,0,1,1.15.87.88.88,0,0,0,1,.7,1.29,1.29,0,0,1,1.38,1c.18.57.42.73,1,.71a2.11,2.11,0,0,1,1.85.85.63.63,0,0,1,.09.48,4.24,4.24,0,0,0,.58,3.34,1.65,1.65,0,0,1,.08,1.29,1.23,1.23,0,0,1-1.16.67c-.11,0-.25-.15-.32-.27-.69-1.17-1.36-2.35-2-3.52a.81.81,0,0,0-.9-.46.74.74,0,0,0-.67.64,1.37,1.37,0,0,0,.19.78c.63,1.14,1.27,2.27,1.94,3.38a.45.45,0,0,1-.09.65,1.68,1.68,0,0,1-2.81-.61,1.32,1.32,0,0,0-1-.95A2.25,2.25,0,0,1,194.71,38.51Zm7.63,29.31-.56-.31A.84.84,0,1,0,201,69c.38.24.78.45,1.26.73-.75.8-1.45,1.56-2.17,2.3,0,.06-.22.06-.32,0s-.28-.17-.43-.24a.84.84,0,0,0-1,1.34l.19.2A6,6,0,0,1,196,74.55a.45.45,0,0,1-.35-.25,3.75,3.75,0,0,1-.2-.88A13.17,13.17,0,0,1,196,69c.31.17.56.32.82.45a.84.84,0,0,0,.84-1.45c-.29-.19-.61-.34-.89-.54-.09-.06-.18-.26-.14-.34.38-.92.78-1.83,1.21-2.79.53.3,1,.58,1.46.83a.71.71,0,0,0,.92-.08,1.25,1.25,0,0,0,.29-.84c0-.26-.32-.48-.49-.72h3.38A5.07,5.07,0,0,0,202.34,67.82Zm8.35-.06c-.53,0-1.08,0-1.63,0a.81.81,0,0,0-.68,1.3,1.17,1.17,0,0,0,.73.35,12.11,12.11,0,0,0,1.49,0c-.13.68-.24,1.3-.37,1.92a11.37,11.37,0,0,1-.33,1.24.53.53,0,0,1-.34.25,2.05,2.05,0,0,1-.5,0,.81.81,0,0,0-.85.79.82.82,0,0,0,.73.9l.25,0a7.32,7.32,0,0,1-1.45,2.28c-.27.28-.51.24-.77,0a7.79,7.79,0,0,1-1.57-2.62c-.28-.71-.5-1.45-.77-2.24h1a.84.84,0,0,0,0-1.67h-1c-.23,0-.36,0-.39-.3-.08-.94-.17-1.88-.27-2.81,0-.27.1-.34.34-.33.41,0,.83,0,1.24,0,.6,0,.93-.32.93-.83s-.33-.85-.95-.85h-1.08s0,0-.07,0c.39-1.23,2.4-2,4.12-1.52S211.16,65.72,210.69,67.76Zm4.74-5.1a10.54,10.54,0,0,1,1.07.28c0,.05,0,.09,0,.13l-1,.58a.84.84,0,0,0-.41,1.21.84.84,0,0,0,1.26.24l1.35-.77c.45,1,.9,2,1.36,3l-1.08.62a.83.83,0,0,0-.39,1.22c.26.46.71.55,1.25.25l.71-.4a12.11,12.11,0,0,1,.5,4.76c-.12.85-.33,1-1.09.63s-1.27-.66-1.9-1a3.67,3.67,0,0,0,.42-.56.77.77,0,0,0-.2-.92.81.81,0,0,0-1-.12c-.69.33-.7.33-1.23-.24l-1.68-1.86,1.15-.66c.54-.32.7-.79.42-1.24a.86.86,0,0,0-1.27-.23l-1.15.66h-.15c.11-1.65.24-3.31-1-4.75h1.38a3.3,3.3,0,0,0,2.09-.68A.84.84,0,0,1,215.43,62.66Zm-.38-14.92a1.25,1.25,0,0,1-1.2,1.25c-.85,0-1.71,0-2.57,0a.83.83,0,0,0-.87.51.84.84,0,0,0,.84,1.18h2.37a1.29,1.29,0,1,1,0,2.57h-2.37c-.62,0-1,.3-1,.83s.35.84,1,.84h2.37a1.28,1.28,0,0,1,1.4,1.27,1.29,1.29,0,0,1-1.41,1.3h-3.58c-.62,0-1,.3-1,.83s.34.85.95.85h2.79a1.29,1.29,0,1,1,0,2.57H194l-.28,0V47.66a1.87,1.87,0,0,0,0-.53c-.19-.52.09-.77.5-1s1-.46,1.53-.75,1.15-.76,1.72-1.14c.1-.06.23-.15.32-.13a3.52,3.52,0,0,0,3.4-.83l.82,1.43c-.28,0-.47,0-.65,0a.81.81,0,0,0-.79.85.79.79,0,0,0,.77.82c.29,0,.58,0,.87,0h11.22a4.1,4.1,0,0,1,.5,0A1.26,1.26,0,0,1,215.05,47.74Zm6.47-13.23a1.19,1.19,0,0,1-.16,1.49c-.46.53-.48.75-.11,1.36a2.12,2.12,0,0,1-1.15,3.18,1.21,1.21,0,0,0-.91.9,1.55,1.55,0,0,1-1.26,1.13,1.68,1.68,0,0,1-1.62-.55.39.39,0,0,1-.06-.54c.62-1,1.21-2.09,1.82-3.13.09-.16.18-.31.26-.47a.86.86,0,0,0-.31-1.16.84.84,0,0,0-1.15.33c-.53.88-1,1.77-1.54,2.66-.18.31-.37.62-.54.94a.35.35,0,0,1-.5.2,3.57,3.57,0,0,1-.57-.23.75.75,0,0,1-.42-.77,2.7,2.7,0,0,1,.38-1.35,3.52,3.52,0,0,0,.35-2.92.57.57,0,0,1,.15-.63,2.25,2.25,0,0,1,1.72-.7c.68,0,.84-.1,1.08-.77a1.28,1.28,0,0,1,1.3-.9c.71,0,.84-.09,1.11-.75a1.24,1.24,0,0,1,1.14-.82,1.2,1.2,0,0,1,1.19.69,1.14,1.14,0,0,1-.12,1.36A1,1,0,0,0,221.52,34.51Z" transform="translate(-0.3 -1.97)"/><path class="cls-4" d="M193.74,61.77V47.67a1.93,1.93,0,0,0,0-.54c-.19-.52.09-.77.5-1s1-.46,1.53-.75,1.15-.76,1.72-1.14c.1-.06.23-.15.32-.13a3.52,3.52,0,0,0,3.4-.83l.82,1.43c-.28,0-.46,0-.65,0a.81.81,0,0,0-.79.85.79.79,0,0,0,.77.82c.29,0,.58,0,.87,0h11.22a4.1,4.1,0,0,1,.5,0,1.28,1.28,0,0,1-.08,2.54c-.85,0-1.71,0-2.57,0a.83.83,0,0,0-.87.51.84.84,0,0,0,.84,1.18h2.37a1.29,1.29,0,1,1,0,2.57h-2.37c-.62,0-1,.3-1,.83s.35.84,1,.84h2.37a1.28,1.28,0,0,1,1.4,1.27,1.29,1.29,0,0,1-1.41,1.3h-3.58c-.62,0-1,.3-1,.83s.34.85.95.85h2.79a1.29,1.29,0,1,1,0,2.57H194Z" transform="translate(-0.3 -1.97)"/><path class="cls-4" d="M194.71,38.51a9.31,9.31,0,0,1,.46-1.18c.29-.56.3-.82-.1-1.27a1.27,1.27,0,0,1-.14-1.68.86.86,0,0,0-.08-1.23,1.22,1.22,0,0,1-.2-1.43,1.19,1.19,0,0,1,1.21-.71,1.23,1.23,0,0,1,1.15.88.88.88,0,0,0,1,.69,1.29,1.29,0,0,1,1.38,1c.18.57.41.73,1,.71a2.11,2.11,0,0,1,1.85.85.63.63,0,0,1,.09.48,4.24,4.24,0,0,0,.58,3.34,1.65,1.65,0,0,1,.08,1.29,1.2,1.2,0,0,1-1.16.66c-.11,0-.25-.14-.32-.26-.69-1.17-1.36-2.35-2-3.52a.81.81,0,0,0-.9-.46.74.74,0,0,0-.67.64,1.37,1.37,0,0,0,.19.78c.63,1.14,1.27,2.27,1.94,3.38a.45.45,0,0,1-.09.65,1.68,1.68,0,0,1-2.81-.61,1.32,1.32,0,0,0-1-.95A2.25,2.25,0,0,1,194.71,38.51Z" transform="translate(-0.3 -1.97)"/><path class="cls-4" d="M204.63,72h1a.84.84,0,0,0,0-1.67h-1c-.23,0-.36,0-.39-.3-.08-.94-.17-1.88-.27-2.81,0-.27.1-.34.34-.33.41,0,.83,0,1.24,0,.6,0,.93-.32.93-.83s-.33-.85-.95-.86h-1.08s0,0-.07,0c.38-1.23,2.4-2,4.12-1.52s2.66,2.09,2.19,4.13c-.53,0-1.08,0-1.63,0a.81.81,0,0,0-.68,1.3,1.17,1.17,0,0,0,.73.35,12.11,12.11,0,0,0,1.49,0c-.13.68-.24,1.3-.37,1.92a11.37,11.37,0,0,1-.33,1.24.53.53,0,0,1-.34.25,2.05,2.05,0,0,1-.5,0,.81.81,0,0,0-.85.79.82.82,0,0,0,.73.9l.25,0a7.44,7.44,0,0,1-1.45,2.29c-.27.28-.51.24-.77,0a7.61,7.61,0,0,1-1.56-2.62C205.12,73.53,204.9,72.79,204.63,72Z" transform="translate(-0.3 -1.97)"/><path class="cls-4" d="M215.9,34.25c.68,0,.84-.1,1.08-.77a1.28,1.28,0,0,1,1.3-.9c.71,0,.84-.09,1.11-.75a1.24,1.24,0,0,1,1.14-.82,1.2,1.2,0,0,1,1.19.69,1.13,1.13,0,0,1-.12,1.35,1,1,0,0,0-.08,1.46,1.18,1.18,0,0,1-.16,1.49c-.46.53-.48.75-.11,1.36a2.12,2.12,0,0,1-1.15,3.18,1.23,1.23,0,0,0-.91.9,1.55,1.55,0,0,1-1.27,1.13,1.67,1.67,0,0,1-1.61-.55.39.39,0,0,1-.06-.54c.62-1,1.21-2.09,1.82-3.13.09-.16.18-.31.26-.47a.86.86,0,0,0-.31-1.16.84.84,0,0,0-1.15.33c-.53.88-1,1.77-1.54,2.66-.18.31-.37.62-.54.94a.35.35,0,0,1-.5.2,3.57,3.57,0,0,1-.57-.23.75.75,0,0,1-.42-.77,2.7,2.7,0,0,1,.38-1.35,3.56,3.56,0,0,0,.35-2.92.57.57,0,0,1,.15-.63A2.25,2.25,0,0,1,215.9,34.25Z" transform="translate(-0.3 -1.97)"/><path class="cls-4" d="M208.23,37.71c-.41-.46-.71-.82-1-1.16a.86.86,0,0,0-1.29-.09.85.85,0,0,0,.1,1.28c.37.38.76.73,1.1,1.13a1.13,1.13,0,0,1,.27.6c0,.43,0,.86,0,1.29s-.11.42-.38.5a1.7,1.7,0,0,1-2.16-1.94,1.3,1.3,0,0,0-.34-1.28,2.1,2.1,0,0,1,.62-3.31.89.89,0,0,0,.57-1.21,1.25,1.25,0,0,1,.7-1.45c.56-.31.66-.49.57-1.14a1.24,1.24,0,0,1,.6-1.35,1.2,1.2,0,0,1,1.37,0,1.26,1.26,0,0,1,.54,1.34.86.86,0,0,0,.55,1.11,1.27,1.27,0,0,1,.71,1.48.89.89,0,0,0,.56,1.18,2.11,2.11,0,0,1,.6,3.37,1.17,1.17,0,0,0-.31,1.17,1.68,1.68,0,0,1-2.21,2c-.14,0-.21-.27-.31-.41s0,0,0,0c0-1.62,0-1.62,1.11-2.76a5.18,5.18,0,0,0,.4-.41.8.8,0,0,0-.06-1.16.77.77,0,0,0-1.12,0C209,36.78,208.68,37.21,208.23,37.71Z" transform="translate(-0.3 -1.97)"/><path class="cls-4" d="M213.41,69.69l1.15-.66c.54-.32.7-.78.42-1.24a.86.86,0,0,0-1.27-.23l-1.15.66h-.15c.11-1.65.24-3.31-1-4.75h1.38a3.3,3.3,0,0,0,2.09-.68.84.84,0,0,1,.6-.14,10.54,10.54,0,0,1,1.07.28v.13l-1,.58a.84.84,0,0,0-.41,1.21.84.84,0,0,0,1.26.24l1.35-.77,1.36,3-1.08.62a.83.83,0,0,0-.39,1.22c.26.46.71.55,1.25.25l.71-.4a12.11,12.11,0,0,1,.5,4.76c-.12.85-.33,1-1.09.63s-1.27-.66-1.9-1a3.67,3.67,0,0,0,.42-.56.77.77,0,0,0-.2-.92.81.81,0,0,0-1-.12c-.69.33-.69.33-1.23-.24Z" transform="translate(-0.3 -1.97)"/><path class="cls-4" d="M196,69c.31.17.56.32.82.45a.84.84,0,0,0,.84-1.45c-.29-.19-.61-.34-.89-.54-.09-.06-.18-.26-.14-.34.38-.92.78-1.83,1.21-2.79.53.3,1,.58,1.46.83a.71.71,0,0,0,.92-.08,1.25,1.25,0,0,0,.29-.84c0-.26-.32-.48-.49-.72h3.38a5.07,5.07,0,0,0-1.06,4.3l-.56-.31a.85.85,0,1,0-.84,1.47c.39.24.79.45,1.27.73-.75.8-1.45,1.56-2.17,2.3,0,.06-.22.06-.32,0s-.28-.17-.43-.24a.84.84,0,0,0-1,1.34l.19.2A6,6,0,0,1,196,74.55a.45.45,0,0,1-.35-.25,3.75,3.75,0,0,1-.2-.88A13.17,13.17,0,0,1,196,69Z" transform="translate(-0.3 -1.97)"/><path class="cls-4" d="M202.68,42.51l1.23-.64c1.35,1,1.35,1,3.45,1.12v1.75H204.1a.32.32,0,0,1-.22-.14C203.47,43.9,203.08,43.21,202.68,42.51Z" transform="translate(-0.3 -1.97)"/><path class="cls-4" d="M212.49,41.89l1.22.62-1.22,2.1a.43.43,0,0,1-.27.13h-3.11V43A3.61,3.61,0,0,0,212.49,41.89Z" transform="translate(-0.3 -1.97)"/></svg>