<svg id="Layer_1" data-name="Layer 1" xmlns="http://www.w3.org/2000/svg" xmlns:xlink="http://www.w3.org/1999/xlink" viewBox="0 0 395.45 198.32"><defs><style>.cls-1,.cls-2,.cls-9{fill:none;stroke-miterlimit:10;}.cls-1{stroke-linecap:round;stroke-width:58.47px;stroke:url(#New_Gradient_Swatch_9);}.cls-2,.cls-9{stroke:#fff;stroke-width:2.02px;}.cls-2{stroke-dasharray:10.08;}.cls-3{fill:url(#linear-gradient);}.cls-4{fill:#fff;}.cls-5{fill:url(#linear-gradient-2);}.cls-6{fill:url(#New_Gradient_Swatch_9-2);}.cls-7{fill:url(#linear-gradient-3);}.cls-8{fill:#75c441;}</style><linearGradient id="New_Gradient_Swatch_9" y1="169.09" x2="395.45" y2="169.09" gradientUnits="userSpaceOnUse"><stop offset="0" stop-color="#8dc63f"/><stop offset="1" stop-color="#168650"/></linearGradient><linearGradient id="linear-gradient" x1="197.72" y1="117.09" x2="197.72" y2="98.38" gradientUnits="userSpaceOnUse"><stop offset="0" stop-color="#8dc63f"/><stop offset="1" stop-color="#006833"/></linearGradient><linearGradient id="linear-gradient-2" x1="197.73" y1="145.1" x2="197.73" y2="129.16" gradientUnits="userSpaceOnUse"><stop offset="0" stop-color="#168650"/><stop offset="1" stop-color="#8dc63f"/></linearGradient><linearGradient id="New_Gradient_Swatch_9-2" x1="197.73" y1="1.11" x2="197.73" y2="100.35" xlink:href="#New_Gradient_Swatch_9"/><linearGradient id="linear-gradient-3" x1="197.73" y1="8.94" x2="197.73" y2="92.61" xlink:href="#linear-gradient-2"/></defs><line class="cls-1" x1="366.22" y1="169.09" x2="29.23" y2="169.09"/><line class="cls-2" x1="340.16" y1="169.09" x2="40.32" y2="169.09"/><polygon class="cls-3" points="180.41 97.81 197.72 117.9 197.72 117.9 197.72 117.9 197.72 117.9 197.72 117.9 215.04 97.81 180.41 97.81"/><circle class="cls-4" cx="197.73" cy="137.13" r="12.35"/><circle class="cls-5" cx="197.73" cy="137.13" r="7.97"/><circle class="cls-6" cx="197.73" cy="50.57" r="50.57"/><circle class="cls-7" cx="197.73" cy="50.57" r="42.17"/><circle class="cls-4" cx="197.73" cy="50.57" r="36.22"/><path class="cls-8" d="M185.14,72.78l-5.86,0a1.11,1.11,0,0,1-1.16-1.19V55.07a1.09,1.09,0,0,1,1.13-1.16h4.2l5.82,0a1.06,1.06,0,0,1,1.08,1.15c0,.32,0,.63,0,1V57.7l.8-.6.92-.67a16.23,16.23,0,0,0,1.77-1.36,4.33,4.33,0,0,1,3.1-1.21,3.54,3.54,0,0,1,.45,0c.63,0,1.33.06,2.12.06s1.51,0,2.27,0h.43A4.79,4.79,0,0,1,206,55.76a4.23,4.23,0,0,1,.7,3.81,1,1,0,0,0,0,.33v.62h13.36a3.18,3.18,0,0,1,1.33,6.15l-2.51,1.11-9.3,4.12a10.85,10.85,0,0,1-4.39.87h-4.54c-1.49,0-3,0-4.46,0a3.16,3.16,0,0,1-1.27-.29c-.88-.41-1.76-.86-2.66-1.32l-1.77-.89-.1.7c0,.24,0,.42-.06.6a1.14,1.14,0,0,1-1.17,1.22Zm11.69-16.56a2,2,0,0,0-1.07.35l-2.17,1.62c-.87.65-1.74,1.31-2.62,2a1.43,1.43,0,0,0-.63,1.27c0,1.77,0,3.53,0,5.29a1.26,1.26,0,0,0,.77,1.27c.8.38,1.58.77,2.38,1.17l2.15,1.06a2.53,2.53,0,0,0,1.09.25h8.06a10.9,10.9,0,0,0,4.62-1c1.86-.85,3.72-1.67,5.58-2.5l3.53-1.56c.67-.3,1.35-.6,2-.92a1,1,0,0,0,.54-.94,1,1,0,0,0-.72-.67,1,1,0,0,0-.34,0H202.63a1.23,1.23,0,0,1-1.1-.45,1.14,1.14,0,0,1-.16-1.13,1.32,1.32,0,0,1,1.09-.74,2.15,2.15,0,0,0,2.06-1.62,2,2,0,0,0-.35-1.75,2.59,2.59,0,0,0-2.1-.93h-2.19l-3,0Z" transform="translate(-3.07 -0.69)"/><path class="cls-8" d="M220.66,56.22a1.28,1.28,0,0,1-1-.62,13.17,13.17,0,0,0-11.53-6,18.6,18.6,0,0,0-2,.1,13.13,13.13,0,0,0-4.77,1.38,1.35,1.35,0,0,1-.63.17,1.1,1.1,0,0,1-1-.61,1.19,1.19,0,0,1,.59-1.62,15.36,15.36,0,0,1,6.4-1.67l.32,0,.36,0,.46,0V43.05l-.45,0-1-.09c-.6-.05-1.19-.1-1.78-.18a9.42,9.42,0,0,1-6.09-2.8,8.84,8.84,0,0,1-2.16-5.72c0-.69-.07-1.44,0-2.3a1.08,1.08,0,0,1,1.1-1.18c3.78,0,6.61.82,8.92,2.57a12.16,12.16,0,0,1,1.21,1.1l.56.55.49.47.3-.61c.08-.15.16-.31.23-.47l.27-.56a11,11,0,0,1,7.48-5.65,31.46,31.46,0,0,1,5-.68l.21,0h.18a1.05,1.05,0,0,1,.8.28,1.39,1.39,0,0,1,.31,1l0,.58a29.41,29.41,0,0,1-.22,3.4,9,9,0,0,1-7.53,8,28.66,28.66,0,0,1-2.91.4l-1.24.13-.49,0-.81,0V42.8c0,1.29,0,2.56,0,3.81.05.53.71.8.94.84a15.17,15.17,0,0,1,6.89,3.07,15.43,15.43,0,0,1,3.48,3.81,1.35,1.35,0,0,1,.22,1,1.12,1.12,0,0,1-.48.69A1.25,1.25,0,0,1,220.66,56.22Z" transform="translate(-3.07 -0.69)"/><circle class="cls-9" cx="25.89" cy="169.09" r="15.59"/><circle class="cls-4" cx="25.89" cy="169.09" r="8.38"/></svg>