<svg id="Layer_1" data-name="Layer 1" xmlns="http://www.w3.org/2000/svg" xmlns:xlink="http://www.w3.org/1999/xlink" viewBox="0 0 395.45 198.32"><defs><style>.cls-1,.cls-10,.cls-2,.cls-3{fill:none;}.cls-1{stroke-linecap:round;stroke-width:58.47px;stroke:url(#New_Gradient_Swatch_14);}.cls-1,.cls-2,.cls-3{stroke-miterlimit:10;}.cls-2,.cls-3{stroke:#fff;stroke-width:2.02px;}.cls-2{stroke-dasharray:10.08;}.cls-4{fill:#fff;}.cls-5{fill:url(#linear-gradient);}.cls-6{fill:url(#linear-gradient-2);}.cls-7{fill:url(#linear-gradient-3);}.cls-8{fill:url(#New_Gradient_Swatch_13);}.cls-9{fill:#f2c013;}</style><linearGradient id="New_Gradient_Swatch_14" y1="169.09" x2="395.45" y2="169.09" gradientUnits="userSpaceOnUse"><stop offset="0" stop-color="#f7d21b"/><stop offset="1" stop-color="#c26c00"/></linearGradient><linearGradient id="linear-gradient" x1="197.54" y1="97.87" x2="196.67" y2="117.27" gradientUnits="userSpaceOnUse"><stop offset="0" stop-color="#ac4000"/><stop offset="1" stop-color="#f7d21b"/></linearGradient><linearGradient id="linear-gradient-2" x1="197.54" y1="145.1" x2="197.54" y2="129.16" gradientUnits="userSpaceOnUse"><stop offset="0" stop-color="#c26c00"/><stop offset="1" stop-color="#f7d21b"/></linearGradient><linearGradient id="linear-gradient-3" x1="197.54" y1="1.11" x2="197.54" y2="102.26" xlink:href="#New_Gradient_Swatch_14"/><linearGradient id="New_Gradient_Swatch_13" x1="197.54" y1="8.4" x2="197.54" y2="92.01" xlink:href="#linear-gradient-2"/></defs><line class="cls-1" x1="366.22" y1="169.09" x2="29.23" y2="169.09"/><line class="cls-2" x1="342.11" y1="169.09" x2="44.83" y2="169.09"/><circle class="cls-3" cx="28.12" cy="169.09" r="15.59"/><circle class="cls-4" cx="28.12" cy="169.09" r="8.38"/><polygon class="cls-5" points="180.22 97.81 197.54 117.9 197.54 117.9 197.54 117.9 197.54 117.9 197.54 117.9 214.86 97.81 180.22 97.81"/><circle class="cls-4" cx="197.54" cy="137.13" r="12.35"/><circle class="cls-6" cx="197.54" cy="137.13" r="7.97"/><circle class="cls-7" cx="197.54" cy="50.57" r="50.57"/><circle class="cls-8" cx="197.54" cy="50.57" r="42.17"/><path class="cls-4" d="M237,52.3a36.22,36.22,0,1,1-36.22-36.21A36.22,36.22,0,0,1,237,52.3Z" transform="translate(-3.2 -1.73)"/><path class="cls-9" d="M220.5,70.93a1.37,1.37,0,0,1-1.78.9,63.35,63.35,0,0,0-9.62-2,55.32,55.32,0,0,0-17.93.08c-2.63.51-5.21,1.28-7.81,2a1.49,1.49,0,0,1-1.63-.38,1.34,1.34,0,0,1-.22-1.5,1.49,1.49,0,0,1,1-.82,56.18,56.18,0,0,1,15.15-2.77l.47,0V56.53l-.66,0a26.18,26.18,0,0,1-7.35-1,11.46,11.46,0,0,1-8.35-9.73,56.27,56.27,0,0,1-.41-6,1.36,1.36,0,0,1,1.41-1.48,20.74,20.74,0,0,1,11.47,3,13.54,13.54,0,0,1,4.16,4.23c.08.15.18.28.29.47.35-1,.63-1.91,1-2.79,1.93-4.65,5.49-7.51,10.17-9.11a29,29,0,0,1,9.11-1.4,1.39,1.39,0,0,1,1.57,1.38,28.31,28.31,0,0,1-.83,8.2,12.43,12.43,0,0,1-8,8.51,26.62,26.62,0,0,1-8.53,1.45c-.7,0-1.42,0-2.16,0v14l.61,0a72.16,72.16,0,0,1,17.15,2.58c.27.07.54.15.79.24A1.38,1.38,0,0,1,220.5,70.93Z" transform="translate(-3.2 -1.73)"/><path class="cls-10" d="M57.86,16.09" transform="translate(-3.2 -1.73)"/></svg>